<?xml version="1.0" encoding="UTF-8" standalone="no"?>
<!DOCTYPE svg PUBLIC "-//W3C//DTD SVG 1.1//EN" "http://www.w3.org/Graphics/SVG/1.1/DTD/svg11.dtd">
<svg width="100%" height="100%" viewBox="0 0 27 35" version="1.1" xmlns="http://www.w3.org/2000/svg" xmlns:xlink="http://www.w3.org/1999/xlink" xml:space="preserve" xmlns:serif="http://www.serif.com/" style="fill-rule:evenodd;clip-rule:evenodd;stroke-linejoin:round;stroke-miterlimit:2;">
    <g id="overflowing-stacked-papers-tray">
        <g id="Group_18">
            <g id="Path_292" transform="matrix(1,0,0,1,-121.3,-396.5)">
                <path d="M126.5,426.2L138.3,426.2C138.849,426.2 139.3,425.749 139.3,425.2L139.3,424C139.3,423.451 138.849,423 138.3,423L126.5,423C125.951,423 125.5,423.451 125.5,424L125.5,425.3C125.5,425.849 125.951,426.3 126.5,426.3L126.5,426.2Z" style="fill:rgb(22,36,71);fill-rule:nonzero;"/>
            </g>
            <g id="Path_293" transform="matrix(1,0,0,1,-58.5,-298.1)">
                <path d="M58.5,330.5C58.5,332.3 58.5,332.3 58.7,332.3L80,332.3C81.1,332.3 81.1,332.3 81.1,332.1L81.1,319C81.1,318.451 80.649,318 80.1,318L79.4,318C78.851,318 78.4,318.451 78.4,319L78.4,329C78.404,329.295 78.191,329.551 77.9,329.6L61.9,329.6C61.571,329.6 61.3,329.329 61.3,329L61.3,319C61.3,318.451 60.849,318 60.3,318L59.6,318C59.051,318 58.6,318.451 58.6,319L58.6,330.5L58.5,330.5Z" style="fill:rgb(22,36,71);fill-rule:nonzero;"/>
            </g>
            <g id="Path_294" transform="matrix(1,0,0,1,-124,-324.2)">
                <path d="M129.3,349L141.1,350L141.2,350C141.681,350.01 142.104,349.671 142.2,349.2L142.2,347.9C142.21,347.419 141.871,346.996 141.4,346.9L129.6,345.8C129.119,345.79 128.696,346.129 128.6,346.6L128.4,347.9C128.397,348.413 128.79,348.849 129.3,348.9L129.3,349Z" style="fill:rgb(22,36,71);fill-rule:nonzero;"/>
            </g>
            <g id="Path_295" transform="matrix(1,0,0,1,-383.3,0)">
                <path d="M407,13C407.088,13.436 407.456,13.764 407.9,13.8C407.966,13.807 408.034,13.807 408.1,13.8L409.4,13.6C409.911,13.5 410.262,13.017 410.2,12.5L408.2,0.8C408.115,0.325 407.698,-0.024 407.216,-0.024C407.143,-0.024 407.071,-0.016 407,0L405.7,0.2C405.189,0.3 404.838,0.783 404.9,1.3L407,13Z" style="fill:rgb(22,36,71);fill-rule:nonzero;"/>
            </g>
            <g id="Path_296" transform="matrix(1,0,0,1,-175,-138.5)">
                <path d="M183.3,150.6L193.5,156.6C193.944,156.845 194.508,156.715 194.8,156.3L195.5,155.2C195.609,155.036 195.667,154.843 195.667,154.646C195.667,154.303 195.491,153.983 195.2,153.8L184.9,147.8C184.456,147.555 183.892,147.685 183.6,148.1L182.9,149.3C182.674,149.769 182.85,150.339 183.3,150.6Z" style="fill:rgb(22,36,71);fill-rule:nonzero;"/>
            </g>
            <g id="Path_297" transform="matrix(1,0,0,1,-264,-44.6)">
                <path d="M284.5,59.6C284.683,59.891 285.003,60.067 285.346,60.067C285.543,60.067 285.736,60.009 285.9,59.9L286.9,59.1C287.315,58.808 287.445,58.244 287.2,57.8L280.5,48C280.208,47.585 279.644,47.455 279.2,47.7L278.1,48.5C277.685,48.792 277.555,49.356 277.8,49.8L284.5,59.6Z" style="fill:rgb(22,36,71);fill-rule:nonzero;"/>
            </g>
            <g id="Path_298" transform="matrix(1,0,0,1,-137.8,-236)">
                <path d="M143.8,254.8L155.3,257.8C155.792,257.937 156.314,257.676 156.5,257.2L156.8,255.9C156.927,255.38 156.615,254.845 156.1,254.7L144.7,251.7C144.208,251.563 143.686,251.824 143.5,252.3L143.2,253.6C143.063,254.092 143.324,254.614 143.8,254.8Z" style="fill:rgb(22,36,71);fill-rule:nonzero;"/>
            </g>
        </g>
    </g>
</svg>
