<?xml version="1.0" encoding="UTF-8" standalone="no"?>
<!DOCTYPE svg PUBLIC "-//W3C//DTD SVG 1.1//EN" "http://www.w3.org/Graphics/SVG/1.1/DTD/svg11.dtd">
<svg width="100%" height="100%" viewBox="0 0 38 33" version="1.1" xmlns="http://www.w3.org/2000/svg" xmlns:xlink="http://www.w3.org/1999/xlink" xml:space="preserve" xmlns:serif="http://www.serif.com/" style="fill-rule:evenodd;clip-rule:evenodd;stroke-linejoin:round;stroke-miterlimit:2;">
    <path d="M0.7,15.8L9.4,19L12.7,29.8C12.793,30.266 13.205,30.605 13.681,30.605C13.952,30.605 14.212,30.495 14.4,30.3L19.2,26.3C19.718,25.865 20.482,25.865 21,26.3L29.7,32.7C29.876,32.838 30.094,32.913 30.318,32.913C30.796,32.913 31.211,32.57 31.3,32.1L37.7,1.2C37.707,1.15 37.711,1.1 37.711,1.05C37.711,0.502 37.26,0.05 36.711,0.05C36.606,0.05 36.5,0.067 36.4,0.1L0.7,13.8C0.151,13.8 -0.3,14.251 -0.3,14.8C-0.3,15.349 0.151,15.8 0.7,15.8ZM12.2,17.3L29.2,6.8C29.229,6.791 29.259,6.786 29.289,6.786C29.454,6.786 29.589,6.922 29.589,7.086C29.589,7.167 29.557,7.244 29.5,7.3L15.5,20.3C15.002,20.778 14.684,21.414 14.6,22.1L14.1,25.6C14.1,25.819 13.919,26 13.7,26C13.481,26 13.3,25.819 13.3,25.6L11.4,19.2C11.157,18.431 11.494,17.59 12.2,17.2L12.2,17.3Z" style="fill:rgb(22,36,71);fill-rule:nonzero;"/>
</svg>
