<?xml version="1.0" encoding="UTF-8" standalone="no"?>
<!DOCTYPE svg PUBLIC "-//W3C//DTD SVG 1.1//EN" "http://www.w3.org/Graphics/SVG/1.1/DTD/svg11.dtd">
<svg width="100%" height="100%" viewBox="0 0 1792 1792" version="1.1" xmlns="http://www.w3.org/2000/svg" xmlns:xlink="http://www.w3.org/1999/xlink" xml:space="preserve" xmlns:serif="http://www.serif.com/" style="fill-rule:evenodd;clip-rule:evenodd;stroke-linejoin:round;stroke-miterlimit:2;">
    <path d="M1684,408C1639.33,473.333 1585.33,529 1522,575C1522.67,584.333 1523,598.333 1523,617C1523,703.667 1510.33,790.167 1485,876.5C1459.67,962.833 1421.17,1045.67 1369.5,1125C1317.83,1204.33 1256.33,1274.5 1185,1335.5C1113.67,1396.5 1027.67,1445.17 927,1481.5C826.333,1517.83 718.667,1536 604,1536C423.333,1536 258,1487.67 108,1391C131.333,1393.67 157.333,1395 186,1395C336,1395 469.667,1349 587,1257C517,1255.67 454.333,1234.17 399,1192.5C343.667,1150.83 305.667,1097.67 285,1033C307,1036.33 327.333,1038 346,1038C374.667,1038 403,1034.33 431,1027C356.333,1011.67 294.5,974.5 245.5,915.5C196.5,856.5 172,788 172,710L172,706C217.333,731.333 266,745 318,747C274,717.667 239,679.333 213,632C187,584.667 174,533.333 174,478C174,419.333 188.667,365 218,315C298.667,414.333 396.833,493.833 512.5,553.5C628.167,613.167 752,646.333 884,653C878.667,627.667 876,603 876,579C876,489.667 907.5,413.5 970.5,350.5C1033.5,287.5 1109.67,256 1199,256C1292.33,256 1371,290 1435,358C1507.67,344 1576,318 1640,280C1615.33,356.667 1568,416 1498,458C1560,451.333 1622,434.667 1684,408Z" style="fill:rgb(22,36,71);fill-rule:nonzero;"/>
</svg>
