<?xml version="1.0" encoding="UTF-8" standalone="no"?>
<!DOCTYPE svg PUBLIC "-//W3C//DTD SVG 1.1//EN" "http://www.w3.org/Graphics/SVG/1.1/DTD/svg11.dtd">
<svg width="100%" height="100%" viewBox="0 0 1923 449" version="1.1" xmlns="http://www.w3.org/2000/svg" xmlns:xlink="http://www.w3.org/1999/xlink" xml:space="preserve" xmlns:serif="http://www.serif.com/" style="fill-rule:evenodd;clip-rule:evenodd;stroke-linejoin:round;stroke-miterlimit:2;">
    <g id="Group_23" transform="matrix(1,0,0,1,0.158,-3034.1)">
        <g id="Path_290" transform="matrix(1,0,0,1,171,-41)">
            <path d="M-19.158,3260.24C-19.158,3260.24 235.626,3160.94 584.098,3260.24C932.57,3359.54 1564.68,3142.36 1564.68,3142.36C1564.68,3142.36 1626.14,3106.11 1749.57,3120.48C1749.74,3120.53 1749.35,3523.64 1749.57,3522.81L953.072,3509.83L-19.155,3523.25L-19.158,3260.24Z" style="fill-opacity:0.4;fill-rule:nonzero;"/>
        </g>
        <g id="Path_299" transform="matrix(1,0,0,1,19,-83)">
            <path d="M-19.158,3260.24C-19.158,3260.24 235.626,3160.94 584.098,3260.24C932.57,3359.54 1564.68,3142.36 1564.68,3142.36C1564.68,3142.36 1779.37,3106.1 1902.8,3120.47C1902.97,3120.53 1902.58,3523.63 1902.8,3522.8L953.069,3509.83L-19.158,3523.25L-19.158,3260.24Z" style="fill-opacity:0.22;fill-rule:nonzero;"/>
        </g>
        <g id="Path_289" transform="matrix(1,0,0,1,-44,-18)">
            <path d="M44.287,3243.82C140.787,3220.86 339.47,3190.53 584.098,3260.24C932.57,3359.54 1564.68,3142.36 1564.68,3142.36C1564.68,3142.36 1683.23,3063.87 1921.59,3163.4C1936.66,3169.56 1951.11,3177.16 1964.73,3186.09C1965,3187.11 1964.6,3500.77 1964.73,3499.54C1964.35,3499.18 44.287,3500.15 44.287,3500.15C44.287,3500.15 44.449,3243.79 44.287,3243.82Z" style="fill:rgb(252,191,30);fill-rule:nonzero;"/>
        </g>
    </g>
</svg>
