<?xml version="1.0" encoding="UTF-8" standalone="no"?>
<!DOCTYPE svg PUBLIC "-//W3C//DTD SVG 1.1//EN" "http://www.w3.org/Graphics/SVG/1.1/DTD/svg11.dtd">
<svg width="100%" height="100%" viewBox="0 0 838 704" version="1.1" xmlns="http://www.w3.org/2000/svg" xmlns:xlink="http://www.w3.org/1999/xlink" xml:space="preserve" xmlns:serif="http://www.serif.com/" style="fill-rule:evenodd;clip-rule:evenodd;stroke-linejoin:round;stroke-miterlimit:2;">
    <path d="M0,0C0,0 147.8,100.8 67.5,300.3C-12.8,499.8 620,377.5 620,377.5L595.8,557.9L626.4,596.466C771.633,638.139 665.68,537.881 733.682,540.672C776.837,542.444 802.532,557.258 837.4,626.6L837.4,0L0,0Z" style="fill:rgb(252,191,30);fill-rule:nonzero;"/>
    <path d="M439.4,310.9C394.3,309.3 351.4,294.8 310.4,278.9C269.4,263 228.9,245.3 184.9,236.9C156.6,231.5 124.2,230.7 101.5,245.9C79.5,260.5 72.5,285.6 68.6,309C65.8,326.6 64.1,345.1 71.9,361.6C77.4,373 87.1,382.6 93.8,393.6C117.1,431.6 100.6,478.6 75.3,515.8C63.5,533.3 49.8,549.9 40.6,568.5C31.4,587.1 27.3,608.3 35.3,627.3C43.2,646 62,660.2 82.5,670C124.1,690.1 173,696 220.8,699.2C326.5,706.4 432.8,703.2 538.8,700.2C577.971,699.858 617.081,697.053 655.9,691.8C677.3,688.4 699.4,683 715,670.2C734.532,654.701 711.66,589.416 708.595,572.463C700.145,525.719 642.9,562.5 627.4,525.5C618.8,505.2 627.6,482.5 640,463.6C666.6,423.1 711.2,387.6 713.6,341.3C715.2,309.5 693.7,277.7 660.6,262.7C625.8,247 577.6,249 552,275C525.5,301.8 479.1,312.2 439.4,310.8L439.4,310.9Z" style="fill:rgb(252,191,30);fill-rule:nonzero;"/>
</svg>
