<?xml version="1.0" encoding="UTF-8" standalone="no"?>
<!DOCTYPE svg PUBLIC "-//W3C//DTD SVG 1.1//EN" "http://www.w3.org/Graphics/SVG/1.1/DTD/svg11.dtd">
<svg width="100%" height="100%" viewBox="0 0 1042 555" version="1.1" xmlns="http://www.w3.org/2000/svg" xmlns:xlink="http://www.w3.org/1999/xlink" xml:space="preserve" xmlns:serif="http://www.serif.com/" style="fill-rule:evenodd;clip-rule:evenodd;stroke-miterlimit:10;">
    <rect x="211.6" y="265.83" width="19" height="57.66" style="fill:rgb(63,61,86);"/>
    <rect x="722.93" y="262.83" width="19" height="61" style="fill:rgb(63,61,86);"/>
    <path d="M863.1,533.65L863.1,546.65L711.18,548.05L709.56,548.08L651.82,548.61L650.44,548.63L632.89,548.78L632.37,548.78L525.39,549.77L349.78,551.4L349.63,551.4L304.98,551.82L304.5,551.83L106.1,553.65L106.1,538.65L152.75,510.65L246.35,509.87L248.35,509.86L249.01,509.85L251.01,509.82L295.95,509.45L297.96,509.44L298.6,509.43L300.6,509.42L315.01,509.3L315.39,509.29L350.94,508.99L351.23,508.99L628.63,506.65L635.42,506.6L636.1,506.6L641.28,506.55L678.93,506.24L680.93,506.21L682.78,506.19L683.74,506.19L695.45,506.1L697.77,506.07L700.88,506.05L710.63,505.96L726.1,505.83L728.1,505.81L731.58,505.79L732.23,505.79L806.94,505.15L863.1,533.65Z" style="fill:rgb(101,97,125);fill-rule:nonzero;"/>
    <path d="M863.1,533.65L863.1,546.65L711.18,548.05L709.56,548.08L651.82,548.61L650.44,548.63L632.89,548.78L632.37,548.78L525.39,549.77L349.78,551.4L349.63,551.4L304.98,551.82L304.5,551.83L106.1,553.65L106.1,538.65L152.75,510.65L246.35,509.87L248.35,509.86L249.01,509.85L251.01,509.82L295.95,509.45L297.96,509.44L298.6,509.43L300.6,509.42L315.01,509.3L315.39,509.29L350.94,508.99L351.23,508.99L628.63,506.65L635.42,506.6L636.1,506.6L641.28,506.55L678.93,506.24L680.93,506.21L682.78,506.19L683.74,506.19L695.45,506.1L697.77,506.07L700.88,506.05L710.63,505.96L726.1,505.83L728.1,505.81L731.58,505.79L732.23,505.79L806.94,505.15L863.1,533.65Z" style="fill-opacity:0.2;fill-rule:nonzero;"/>
    <g transform="matrix(1,0,0,1,-79.34,-172.91)">
        <path d="M375.44,656.57L375.44,681.06C375.441,683.424 374.075,685.586 371.94,686.6C371.16,686.978 370.307,687.183 369.44,687.2L334.54,687.94C333.608,687.962 332.683,687.767 331.84,687.37C329.666,686.374 328.267,684.191 328.27,681.8L328.27,656.57L375.44,656.57Z" style="fill:rgb(63,61,86);fill-rule:nonzero;"/>
    </g>
    <g transform="matrix(1,0,0,1,-79.34,-172.91)">
        <path d="M375.44,656.57L375.44,681.06C375.441,683.424 374.075,685.586 371.94,686.6C371.16,686.978 370.307,687.183 369.44,687.2L334.54,687.94C333.608,687.962 332.683,687.767 331.84,687.37C329.666,686.374 328.267,684.191 328.27,681.8L328.27,656.57L375.44,656.57Z" style="fill-opacity:0.1;fill-rule:nonzero;"/>
    </g>
    <g transform="matrix(1,0,0,1,-79.34,-172.91)">
        <path d="M377.44,656.57L377.44,681.06C377.441,683.424 376.075,685.586 373.94,686.6C373.16,686.978 372.307,687.183 371.44,687.2L336.54,687.94C335.608,687.962 334.683,687.767 333.84,687.37C331.666,686.374 330.267,684.191 330.27,681.8L330.27,656.57L377.44,656.57Z" style="fill:rgb(63,61,86);fill-rule:nonzero;"/>
    </g>
    <rect x="680.93" y="483.66" width="47.17" height="31.5" style="fill:rgb(63,61,86);"/>
    <rect x="680.93" y="483.66" width="47.17" height="31.5" style="fill-opacity:0.1;"/>
    <rect x="678.93" y="483.66" width="47.17" height="31.5" style="fill:rgb(63,61,86);"/>
    <path d="M230.6,265.82L230.6,271.55L211.6,271.06L211.6,265.82L230.6,265.82Z" style="fill-opacity:0.1;fill-rule:nonzero;"/>
    <g transform="matrix(1,0,0,1,-79.34,-172.91)">
        <path d="M435,277.31L412.17,441.31C411.872,443.468 409.978,445.076 407.8,445.02L225,440.28L221.53,440.19C219.21,440.135 217.332,438.212 217.332,435.891C217.332,435.7 217.345,435.509 217.37,435.32L243,263.64C243.341,261.447 245.326,259.86 247.54,260.01L431,272.43C433.256,272.561 435.042,274.453 435.042,276.713C435.042,276.913 435.028,277.112 435,277.31Z" style="fill:rgb(101,97,125);fill-rule:nonzero;"/>
    </g>
    <path d="M175.93,99.16L156.6,250.49L324.6,255.82L345.26,109.82L175.93,99.16Z" style="fill:rgb(21,37,71);fill-rule:nonzero;"/>
    <path d="M589.27,102.15C589.27,99.208 586.882,96.82 583.94,96.82L389.93,96.82C386.988,96.82 384.6,99.208 384.6,102.15L384.6,264.82C384.6,267.762 386.988,270.15 389.93,270.15L583.94,270.15C586.882,270.15 589.27,267.762 589.27,264.82L589.27,102.15Z" style="fill:rgb(101,97,125);"/>
    <rect x="394.26" y="108.49" width="186" height="144.33" style="fill:rgb(21,37,71);"/>
    <path d="M741.93,262.82L741.93,266.61L722.93,267L722.93,262.82L741.93,262.82Z" style="fill-opacity:0.1;fill-rule:nonzero;"/>
    <g transform="matrix(1,0,0,1,-79.34,-172.91)">
        <path d="M907,432.53C907.004,432.597 907.007,432.664 907.007,432.731C907.007,434.393 905.661,435.77 904,435.81L716.8,439.68C715.196,439.713 713.821,438.487 713.67,436.89L697.58,269.61C697.571,269.512 697.566,269.415 697.566,269.317C697.566,267.682 698.867,266.317 700.5,266.24L886.28,257L888.28,256.9C889.922,256.813 891.358,258.061 891.5,259.7L907,432.53Z" style="fill:rgb(101,97,125);fill-rule:nonzero;"/>
    </g>
    <path d="M628.93,103.16L798.6,94.82L812.93,246.82L644.6,250.82L628.93,103.16Z" style="fill:rgb(21,37,71);fill-rule:nonzero;"/>
    <g transform="matrix(1,0,0,1,-79.34,-172.91)">
        <path d="M907,432.53C907.004,432.597 907.007,432.664 907.007,432.731C907.007,434.393 905.661,435.77 904,435.81L886.28,257L888.28,256.9C889.922,256.813 891.358,258.061 891.5,259.7L907,432.53Z" style="fill-opacity:0.1;fill-rule:nonzero;"/>
    </g>
    <g transform="matrix(1,0,0,1,-79.34,-172.91)">
        <path d="M247.57,260L225,440.28L221.53,440.19C219.21,440.135 217.332,438.212 217.332,435.891C217.332,435.7 217.345,435.509 217.37,435.32L243,263.64C243.337,261.431 245.342,259.834 247.57,260Z" style="fill-opacity:0.1;fill-rule:nonzero;"/>
    </g>
    <rect x="211.6" y="306.41" width="19" height="17.08" style="fill-opacity:0.1;"/>
    <path d="M298.1,483.65L298.1,488.62L250.93,489.88L250.93,483.65L298.1,483.65Z" style="fill-opacity:0.1;fill-rule:nonzero;"/>
    <g transform="matrix(1,0,0,1,-79.34,-172.91)">
        <path d="M460.69,485.27L460.69,653.47C460.665,655.59 458.959,657.341 456.84,657.42L265.19,662.52L265.14,662.52C262.983,662.493 261.217,660.727 261.19,658.57L261.19,485.27C261.217,483.113 262.983,481.347 265.14,481.32L456.74,481.32C458.897,481.347 460.663,483.113 460.69,485.27Z" style="fill:rgb(101,97,125);fill-rule:nonzero;"/>
    </g>
    <g transform="matrix(1,0,0,1,-79.34,-172.91)">
        <path d="M265.19,481.32L265.19,662.52L265.14,662.52C262.983,662.493 261.217,660.727 261.19,658.57L261.19,485.27C261.217,483.113 262.983,481.347 265.14,481.32L265.19,481.32Z" style="fill-opacity:0.1;fill-rule:nonzero;"/>
    </g>
    <path d="M194.6,319.15L372.1,319.15L372.1,467.4L194.6,471.4L194.6,319.15Z" style="fill:rgb(212,223,236);fill-rule:nonzero;"/>
    <rect x="722.93" y="306.41" width="19" height="17.42" style="fill-opacity:0.1;"/>
    <path d="M726.1,483.65L726.1,490.06L678.93,488.8L678.93,483.65L726.1,483.65Z" style="fill-opacity:0.1;fill-rule:nonzero;"/>
    <g transform="matrix(1,0,0,1,-79.34,-172.91)">
        <path d="M867.69,485.27L867.69,658.57C867.663,660.745 865.866,662.52 863.69,662.52L672,657.42C669.881,657.341 668.175,655.59 668.15,653.47L668.15,485.27C668.177,483.113 669.943,481.347 672.1,481.32L863.7,481.32C865.872,481.325 867.663,483.098 867.69,485.27Z" style="fill:rgb(101,97,125);fill-rule:nonzero;"/>
    </g>
    <g transform="matrix(1,0,0,1,-79.34,-172.91)">
        <path d="M867.69,485.27L867.69,658.57C867.663,660.745 865.866,662.52 863.69,662.52L863.69,481.32C865.866,481.32 867.663,483.095 867.69,485.27Z" style="fill-opacity:0.1;fill-rule:nonzero;"/>
    </g>
    <path d="M775.6,319.15L598.1,319.15L598.1,467.4L775.6,471.4L775.6,319.15Z" style="fill:rgb(212,223,236);fill-rule:nonzero;"/>
    <g transform="matrix(1,0,0,1,-79.34,-172.91)">
        <path d="M663.19,485.27L663.19,653.47C663.165,655.59 661.459,657.341 659.34,657.42L467.69,662.52C465.514,662.52 463.717,660.745 463.69,658.57L463.69,485.27C463.717,483.113 465.483,481.347 467.64,481.32L659.24,481.32C661.397,481.347 663.163,483.113 663.19,485.27Z" style="fill:rgb(101,97,125);fill-rule:nonzero;"/>
    </g>
    <path d="M397.1,319.15L574.6,319.15L574.6,467.4L397.1,471.4L397.1,319.15Z" style="fill:rgb(212,223,236);fill-rule:nonzero;"/>
    <path d="M863.1,533.65L863.1,546.65L711.18,548.05L709.56,548.08L651.82,548.61L650.44,548.63L632.89,548.78L632.37,548.78L525.39,549.77L349.78,551.4L349.63,551.4L304.98,551.82L304.5,551.83L106.1,553.65L106.1,538.65L308.61,537.32L309.09,537.32L350.08,537.04L350.27,537.04L633.35,535.17L633.64,535.17L633.81,535.16L634.28,535.16L639.07,535.13L640.53,535.13L715.02,534.63L719.42,534.61L720.4,534.6L863.1,533.65Z" style="fill-opacity:0.1;fill-rule:nonzero;"/>
    <circle cx="487.26" cy="272.16" r="51.33" style="fill:rgb(251,190,190);"/>
    <g transform="matrix(1,0,0,1,-79.34,-172.91)">
        <path d="M383.74,725.09C383.74,724.98 383.8,724.86 383.84,724.74C384.84,721.15 386.62,715.08 387.95,710.23C388.12,709.63 388.28,709.04 388.43,708.48C389.9,703.01 392.76,690.2 394.35,682.21C394.91,679.4 395.35,677.21 395.44,676.11C395.64,674.42 398.65,667.19 402.06,658.88C404.45,653.04 407.06,646.66 408.97,641.28C410.22,638.084 411.2,634.789 411.9,631.43C412.05,630.728 412.05,630.002 411.9,629.3C411.6,628.157 411.439,626.982 411.42,625.8C411.19,619.6 413.04,609.8 415.9,605.69C419.4,600.69 421.9,582.03 421.9,582.03C421.9,582.03 427.08,582.78 427.9,578.5C427.987,578.039 428.02,577.569 428,577.1C427.998,576.728 427.968,576.357 427.91,575.99C427.02,569.75 442.63,563.11 451.41,561.68C452.401,561.51 453.404,561.416 454.41,561.4C456.543,561.168 458.641,560.684 460.66,559.96C461.593,559.673 462.593,559.34 463.66,558.96C467.34,557.72 471.74,556.08 476.41,554.28C493.97,547.47 515.23,538.28 515.23,538.28C515.38,537.57 515.55,536.89 515.74,536.22C517.868,527.676 523.946,520.639 532.09,517.29L532.09,515.29C532.09,511.84 531.94,508.29 531.79,504.75C531.79,504.06 531.73,503.37 531.69,502.68L531.69,501.55C531.69,500.85 531.62,500.15 531.58,499.46L531.4,499.32C529.864,498.16 528.544,496.738 527.5,495.12C526.919,494.175 526.443,493.169 526.08,492.12C524.83,488.73 524.54,484.95 523.7,481.37L523.52,480.63C522.426,477.017 521.09,473.483 519.52,470.05C517.31,464.63 515.61,459.05 513.92,453.4C512.893,449.98 511.857,446.553 510.81,443.12L509.23,437.88C508.93,436.88 508.63,435.88 508.4,434.88C508.288,434.418 508.202,433.951 508.14,433.48C507.859,431.946 507.942,430.367 508.38,428.87C508.769,427.848 509.209,426.847 509.7,425.87C509.909,425.427 510.077,424.965 510.2,424.49C510.233,424.385 510.259,424.278 510.28,424.17C510.351,423.814 510.388,423.453 510.39,423.09C510.355,421.779 510.181,420.475 509.87,419.2C509.864,419.184 509.864,419.166 509.87,419.15C509.858,419.059 509.841,418.969 509.82,418.88C509.641,417.888 509.521,416.886 509.46,415.88C509.108,410.466 510.312,405.062 512.93,400.31L513.12,399.95C513.671,398.984 514.286,398.055 514.96,397.17C515.27,396.75 515.59,396.35 515.96,395.95C514.56,397.29 512.26,396.7 510.96,395.26C510.745,395.035 510.56,394.783 510.41,394.51C510.323,394.365 510.247,394.215 510.18,394.06C510.13,393.94 510.09,393.81 510.05,393.68C509.35,391.23 510.57,388.62 512.17,386.63C513.746,384.692 515.699,383.093 517.91,381.93C518.039,381.852 518.173,381.782 518.31,381.72C519.159,381.294 520.042,380.939 520.95,380.66C521.485,380.483 522.029,380.336 522.58,380.22L518.87,379.88L517.37,379.74C518.894,373.696 524.154,369.282 530.37,368.83L531.45,368.83C531.976,368.838 532.5,368.882 533.02,368.96C531.321,368.216 530.26,366.482 530.37,364.63C532.988,366.679 536.236,367.761 539.56,367.69L539.94,367.69C539.767,366.607 539.653,365.515 539.6,364.42C539.5,362.935 539.5,361.445 539.6,359.96C541.413,361.679 543.898,362.508 546.38,362.22L544.3,359.32C546.153,360.799 548.495,361.53 550.86,361.37L551.34,361.32C551.743,361.278 552.141,361.201 552.53,361.09L552.62,361.09C552.43,360.85 552.26,360.6 552.09,360.34L552.03,360.22C551.614,359.566 551.278,358.864 551.03,358.13C550.93,357.846 550.85,357.555 550.79,357.26C550.354,355.442 550.512,353.532 551.24,351.81C554.47,354.51 558.01,358.2 562.24,355.41C566.47,352.62 566.61,347.5 573.24,348.02C576.946,348.37 580.177,350.721 581.65,354.14C583.563,351.979 586.659,351.272 589.32,352.39C591.936,353.63 593.496,356.4 593.2,359.28C595.95,358.59 598.91,357.91 601.55,358.95C604.19,359.99 605.89,363.36 604.39,365.61C604.349,365.681 604.302,365.747 604.25,365.81C603.02,367.4 600.3,368.27 600.59,370.27L601.01,370.57L602.31,371.51C607.41,375.19 612.377,379.057 617.21,383.11C619.69,385.19 622.33,387.69 622.5,390.94C622.53,391.737 622.449,392.535 622.26,393.31C622.1,394.09 621.88,394.87 621.71,395.65C621.282,397.637 621.168,399.678 621.37,401.7C621.44,402.29 621.53,402.87 621.64,403.46C623.17,411.19 629.35,417.57 629.96,425.46L629.96,426.02C629.997,426.864 629.973,427.709 629.89,428.55C629.43,433.35 627.21,437.96 625.41,442.55C625.3,442.83 625.19,443.11 625.09,443.39C621.62,452.39 619.62,461.98 618.09,471.55C617.596,474.945 616.929,478.313 616.09,481.64C615.178,485.447 613.44,489.008 611,492.07C610.025,493.221 608.894,494.231 607.64,495.07C606.796,495.61 605.91,496.082 604.99,496.48C604.07,496.878 604.99,496.48 604.99,496.54C605.1,497.15 605.19,497.76 605.3,498.37C605.36,498.69 605.41,499.01 605.47,499.37C605.466,499.39 605.466,499.41 605.47,499.43C606.31,504.16 607.27,508.79 608.28,513.19L608.79,515.38C621.39,519.93 622.88,529.25 622.97,532.82C623.005,533.296 623.005,533.774 622.97,534.25C622.935,534.726 641.97,534.75 649.47,540.25C650.872,541.201 652.387,541.974 653.98,542.55C657.004,543.693 660.093,544.658 663.23,545.44C664.84,545.86 666.52,546.27 668.23,546.67C671.23,547.36 674.41,548.03 677.48,548.67C685.67,550.32 693.38,551.67 697.29,552.67C706.62,555.03 727.96,575.49 727.96,575.49C727.96,575.49 730.46,596.13 732.96,599.14C735.46,602.15 739.96,612.73 739.96,612.73L756.5,642.14L763.5,654.51L768,654.51C768.62,654.51 769.84,655.39 771.21,656.61C772.4,657.67 773.72,658.99 774.88,660.19L776.8,662.24L778,663.57C778,663.57 785.27,663.75 787.24,669.5C793.16,669.33 800.43,669.72 805.52,672C806.215,672.306 806.883,672.667 807.52,673.08C809.63,674.302 811.13,676.358 811.65,678.74C811.752,679.214 811.812,679.696 811.83,680.18L811.83,681.88C811.47,689.45 806.54,695.75 802.01,699.99L802.33,700.56C802.33,700.56 802.18,700.92 801.89,701.56C801.81,701.75 801.71,701.96 801.6,702.2C801.01,703.46 800.07,705.35 798.84,707.56C796.23,712.344 793.013,716.77 789.27,720.73L788.98,721.03L731.24,721.56L731.07,721.36L719.87,708L714.3,701.36L714.13,701.15L713.97,702.74L713.43,708.04L712.13,720.85L712.06,721.49L712.06,721.66L711.91,723.14L712.02,721.66L711.73,721.66L604.73,722.66L429.11,724.6L429.11,725.44L428.97,725.44L428.97,724.6L384.22,725.08L383.74,725.09Z" style="fill:url(#_Linear1);fill-rule:nonzero;"/>
    </g>
    <g transform="matrix(1,0,0,1,-79.34,-172.91)">
        <path d="M617.94,550.07C617.94,550.07 518.44,562.07 527.94,550.07C531.38,545.73 532.33,532.87 532.14,518.22C532.08,513.77 531.92,509.16 531.69,504.57C530.59,482.57 527.94,461.07 527.94,461.07C527.94,461.07 614.94,420.07 604.94,452.57C600.94,465.7 602.25,484.14 605.29,501.45C606.18,506.5 607.21,511.45 608.29,516.15C610.926,527.614 614.147,538.935 617.94,550.07Z" style="fill:rgb(251,190,190);fill-rule:nonzero;"/>
    </g>
    <g transform="matrix(1,0,0,1,-79.34,-172.91)">
        <path d="M617.94,550.07C617.94,550.07 518.44,562.07 527.94,550.07C531.38,545.73 532.33,532.87 532.14,518.22C547.31,511.74 566.61,516.57 566.61,516.57C586.93,512.52 599.96,513.31 608.29,516.15C610.926,527.614 614.147,538.935 617.94,550.07Z" style="fill-opacity:0.1;fill-rule:nonzero;"/>
    </g>
    <g transform="matrix(1,0,0,1,-79.34,-172.91)">
        <path d="M429.08,725.44L429.08,724.6L604.7,722.69L711.7,721.69L712,721.69L711.89,723.17L712.04,721.69L712.23,721.69L712.23,721.52L713.6,708.07L714.12,702.98L714.28,701.39L714.42,700.06L720.6,679.45L726.78,658.87L731.98,641.54L739.92,615.06C739.92,615.06 735.42,604.56 732.92,601.56C730.42,598.56 727.92,578.06 727.92,578.06C727.92,578.06 706.58,557.73 697.25,555.39C693.34,554.39 685.62,553.06 677.42,551.39C674.35,550.77 671.2,550.11 668.17,549.39C666.46,549 664.78,548.59 663.17,548.18C660.036,547.397 656.948,546.443 653.92,545.32C652.332,544.743 650.821,543.974 649.42,543.03C642.07,537.64 623.65,537.03 622.94,537.03C622.938,537.007 622.938,536.983 622.94,536.96L622.94,536.87C622.966,536.45 622.966,536.03 622.94,535.61C622.94,535.21 622.94,534.74 622.85,534.21C622.85,534.05 622.85,533.88 622.78,533.71C622.73,533.35 622.67,532.97 622.58,532.57C622.55,532.391 622.51,532.214 622.46,532.04C622.17,530.835 621.751,529.665 621.21,528.55C621.14,528.39 621.05,528.22 620.97,528.06C620.48,527.136 619.911,526.256 619.27,525.43C619.14,525.26 619,525.08 618.85,524.91C618.031,523.944 617.12,523.06 616.13,522.27C615.86,522.06 615.58,521.84 615.29,521.64C615.128,521.509 614.958,521.388 614.78,521.28L613.89,520.7L613.06,520.22C612.33,519.82 611.56,519.43 610.72,519.06C610.46,518.94 610.18,518.83 609.9,518.72C609.62,518.61 609.18,518.44 608.81,518.3L608.75,518.3L608,518C607.43,517.81 606.85,517.64 606.24,517.47L605.31,517.23L604.31,517L603.31,516.79C602.31,516.59 601.24,516.41 600.12,516.27L598.98,516.13L597.81,516.01L596.6,515.91L594.88,515.81L592.88,515.74C584.059,515.739 575.263,516.674 566.64,518.53C560.649,517.197 554.513,516.632 548.38,516.85L547.51,516.85L546.51,516.91L545.87,516.91L544.58,517.03C544.15,517.03 543.71,517.12 543.28,517.18C542.85,517.24 542.4,517.29 541.97,517.36L541.31,517.47C540.66,517.58 540,517.7 539.31,517.84C539.09,517.88 538.87,517.93 538.65,517.99C537.78,518.18 536.91,518.41 536.05,518.67C535.62,518.79 535.19,518.93 534.76,519.08C534.54,519.14 534.33,519.22 534.12,519.3L533.48,519.53L532.85,519.78L532.1,520.08C531.72,520.24 531.35,520.41 530.98,520.59C530.77,520.68 530.56,520.78 530.36,520.89C530.16,521 529.95,521.09 529.76,521.2C527.499,522.368 525.409,523.842 523.55,525.58L523.04,526.07L522.54,526.58C522.37,526.75 522.21,526.93 522.05,527.11C521.398,527.822 520.791,528.574 520.23,529.36C520.07,529.57 519.92,529.78 519.77,530C519.135,530.936 518.561,531.911 518.05,532.92C517.92,533.16 517.8,533.41 517.68,533.65C516.864,535.339 516.195,537.096 515.68,538.9C515.493,539.567 515.323,540.233 515.17,540.9C515.017,541.567 494,550.24 476.44,557C471.77,558.8 467.37,560.43 463.69,561.66C462.62,562.02 461.62,562.35 460.69,562.66C458.672,563.389 456.574,563.873 454.44,564.1C453.434,564.116 452.431,564.21 451.44,564.38C443.37,565.69 429.54,571.38 428.03,577.09C427.907,577.546 427.873,578.021 427.93,578.49C427.987,578.959 427.93,578.56 427.93,578.6C428.93,585.6 421.93,584.6 421.93,584.6C421.93,584.6 419.43,603.1 415.93,608.1C413.4,611.7 411.67,619.73 411.45,625.79C411.324,627.678 411.472,629.574 411.89,631.42L411.89,631.56C412.29,632.9 411.33,636.56 409.7,641.25C407.93,646.4 405.35,652.8 402.87,658.84C399.13,667.96 395.61,676.24 395.39,678.06C395.3,678.87 395.04,680.32 394.68,682.19C393.22,689.81 389.98,704.32 388.38,710.19C387.19,714.57 385.46,720.57 384.27,724.69C384.27,724.81 384.2,724.93 384.17,725.04L429,724.6L429,725.44L429.14,725.44L429.08,725.44Z" style="fill:rgb(21,37,71);fill-rule:nonzero;"/>
    </g>
    <g transform="matrix(1,0,0,1,-79.34,-172.91)">
        <path d="M445.44,607.57C445.44,607.57 502.44,637.07 522.94,633.57L445.44,607.57Z" style="fill-opacity:0.1;fill-rule:nonzero;"/>
    </g>
    <g transform="matrix(1,0,0,1,-79.34,-172.91)">
        <path d="M561.44,595.57C561.44,595.57 616.94,613.57 635.44,616.07C653.94,618.57 561.44,595.57 561.44,595.57Z" style="fill-opacity:0.1;fill-rule:nonzero;"/>
    </g>
    <g transform="matrix(1,0,0,1,-79.34,-172.91)">
        <path d="M623,537.65C594,542.99 539.4,541.84 515.8,541.03C524.45,510.03 566.63,520.57 566.63,520.57C618.84,510.15 622.84,531.77 623,537.65Z" style="fill-opacity:0.1;fill-rule:nonzero;"/>
    </g>
    <g transform="matrix(1,0,0,1,-79.34,-172.91)">
        <path d="M623,535.65C594,540.99 539.4,539.84 515.8,539.03C524.45,508.03 566.63,518.57 566.63,518.57C618.84,508.15 622.84,529.77 623,535.65Z" style="fill:rgb(21,37,71);fill-rule:nonzero;"/>
    </g>
    <g transform="matrix(1,0,0,1,-79.34,-172.91)">
        <path d="M776.94,672.32C776.94,672.32 811.1,667.07 811.77,682.07C812.44,697.07 794.35,707.55 794.35,707.55L776.94,672.32Z" style="fill:rgb(251,190,190);fill-rule:nonzero;"/>
    </g>
    <g transform="matrix(1,0,0,1,-79.34,-172.91)">
        <path d="M605.29,501.45C603.821,502.107 602.319,502.687 600.79,503.19C590.01,506.91 579.14,510.66 567.79,512.02C556.44,513.38 544.53,512.18 534.63,506.52C533.591,505.933 532.589,505.282 531.63,504.57C530.53,482.57 527.88,461.07 527.88,461.07C527.88,461.07 614.88,420.07 604.88,452.57C600.9,465.7 602.25,484.14 605.29,501.45Z" style="fill-opacity:0.1;fill-rule:nonzero;"/>
    </g>
    <g transform="matrix(1,0,0,1,-79.34,-172.91)">
        <path d="M552.52,364.84C549.628,365.604 546.539,364.954 544.2,363.09L546.28,365.98C543.8,366.266 541.317,365.442 539.5,363.73C539.311,366.317 539.419,368.917 539.82,371.48C536.379,371.646 532.989,370.582 530.26,368.48C530.151,370.323 531.208,372.05 532.9,372.79C525.782,371.94 519.064,376.551 517.3,383.5L522.52,383.98C518.418,384.856 514.735,387.103 512.08,390.35C510.48,392.35 509.26,394.91 509.96,397.35C510.66,399.79 514.04,401.35 515.88,399.61C510.585,405.93 508.35,414.28 509.78,422.4C510.255,424.11 510.411,425.893 510.24,427.66C509.91,429.31 508.87,430.74 508.35,432.35C507.35,435.27 508.3,438.44 509.19,441.35L513.88,456.77C515.58,462.34 517.27,467.92 519.49,473.31C521.062,476.718 522.399,480.229 523.49,483.82C524.75,488.66 524.8,493.96 527.49,498.19C529.333,500.852 531.798,503.025 534.67,504.52C544.56,510.18 556.51,511.38 567.83,510.02C579.15,508.66 590.01,504.91 600.78,501.19C603.173,500.469 605.469,499.462 607.62,498.19C615.07,493.31 616.73,483.33 618.12,474.54C619.67,464.74 621.74,454.96 625.41,445.74C627.59,440.25 630.41,434.68 629.93,428.8C629.32,420.99 623.14,414.66 621.61,406.98C621.098,404.413 621.122,401.767 621.68,399.21C622.154,397.686 622.42,396.105 622.47,394.51C622.3,391.29 619.66,388.81 617.18,386.74C611.8,382.247 606.247,378 600.52,374C600.23,372 602.95,371.14 604.18,369.56C605.92,367.33 604.12,363.79 601.48,362.75C598.84,361.71 595.88,362.39 593.13,363.08C593.165,362.804 593.183,362.526 593.183,362.248C593.183,358.633 590.208,355.658 586.593,355.658C584.665,355.658 582.831,356.504 581.58,357.97C580.094,354.564 576.861,352.229 573.16,351.89C566.53,351.37 566.4,356.44 562.16,359.23C557.92,362.02 554.42,358.34 551.16,355.66C549.942,358.739 550.462,362.246 552.52,364.84Z" style="fill:rgb(63,61,86);fill-rule:nonzero;"/>
    </g>
    <g transform="matrix(1,0,0,1,-79.34,-172.91)">
        <path d="M802.27,702.32C802.27,702.32 801.38,704.44 799.74,707.51C797.259,712.233 794.239,716.653 790.74,720.68L790.47,720.97L788.85,720.97L731.11,721.5L729.73,721.5L729.56,721.3L718.36,708.01L714.14,703L713.97,702.79L713.61,702.37L713.41,702.13L713.15,701.82L704.94,692.08L707.94,679.58L713.05,658.52L713.18,658.01L714.18,654.01L714.89,651.01L717.27,641.23L725.43,607.58L739.93,615.08L755.22,642.08L763.43,656.58L767.93,656.58C768.78,656.58 770.73,658.22 772.69,660.11C773.39,660.78 774.09,661.49 774.69,662.11C776.47,663.95 777.88,665.53 777.88,665.53C777.88,665.53 785.17,665.69 787.13,671.43C787.231,671.708 787.315,671.992 787.38,672.28C788.031,674.536 788.877,676.731 789.91,678.84C791.2,681.65 792.82,684.84 794.46,688.03C797.51,693.88 800.61,699.45 801.75,701.47L801.89,701.72L802.27,702.32Z" style="fill:rgb(21,37,71);fill-rule:nonzero;"/>
    </g>
    <g transform="matrix(1,0,0,1,-79.34,-172.91)">
        <path d="M716.37,657.17L716.27,658.6L716.27,658.7L716.1,661L714.77,679.51L713.16,701.81L712.7,708.09L711.7,721.53L711.7,721.7L604.7,722.7L429.11,724.6L429.11,725.44L428.97,725.44L428.97,724.32L429.42,709.96L430.28,681.9L431.02,658.11L431.09,655.74C431.263,650.088 435.96,645.532 441.615,645.532C441.914,645.532 442.212,645.545 442.51,645.57C447.23,645.97 453.36,646.46 460.69,646.98L463.69,647.2C506.02,650.14 584.25,653.94 663.19,649.2C664.85,649.11 666.52,649.01 668.19,648.89C680.43,648.12 692.66,647.13 704.77,645.89C705.135,645.852 705.501,645.833 705.867,645.833C711.644,645.833 716.397,650.586 716.397,656.363C716.397,656.615 716.388,656.868 716.37,657.12L716.37,657.17Z" style="fill-opacity:0.1;fill-rule:nonzero;"/>
    </g>
    <g transform="matrix(1,0,0,1,-79.34,-172.91)">
        <path d="M429.08,725.44L429.08,724.6L604.7,722.69L711.7,721.69L712,721.69L712,721.52L713,708.08L713.43,702.08L715.07,679.47L716.36,661.57L716.36,661.13C716.42,660.305 716.383,659.476 716.25,658.66C716.256,658.627 716.256,658.593 716.25,658.56C715.975,656.872 715.288,655.278 714.25,653.92C712.014,651.053 708.446,649.538 704.83,649.92C692.72,651.16 680.49,652.15 668.25,652.92C666.58,653.04 664.91,653.14 663.25,653.23C584.31,657.92 506.08,654.12 463.75,651.23L460.75,651.01C453.42,650.49 447.29,650.01 442.57,649.6C437.219,649.148 432.335,652.855 431.33,658.13C431.229,658.671 431.169,659.22 431.15,659.77L430.47,681.93L429.54,710L429.1,724.36L429.1,725.48L429.08,725.44Z" style="fill:rgb(63,61,86);fill-rule:nonzero;"/>
    </g>
    <g transform="matrix(1,0,0,1,-79.34,-172.91)">
        <path d="M716.67,664.18L715.44,679.51L713.61,702.36L713.15,708.08L712.15,720.89L712.09,721.53L712.09,721.7L711.94,723.18L712.05,721.7L711.76,721.7L604.76,722.7L429.11,724.6L429.11,724.32L429.6,709.96L430.6,681.9L431.24,663.25C431.304,661.097 432.458,659.117 434.3,658C435.432,657.306 436.757,656.991 438.08,657.1C440.18,657.27 442.76,657.47 445.77,657.69C450.66,658.05 456.69,658.47 463.71,658.91C476.71,659.73 493.02,660.61 511.71,661.33C563.71,663.33 633.91,664 700.59,658.16C703.59,657.9 706.69,657.61 709.72,657.32C710.919,657.2 712.128,657.43 713.2,657.98C713.504,658.131 713.792,658.312 714.06,658.52C714.93,659.151 715.62,659.999 716.06,660.98C716.162,661.175 716.246,661.379 716.31,661.59C716.61,662.418 716.733,663.301 716.67,664.18Z" style="fill-opacity:0.1;fill-rule:nonzero;"/>
    </g>
    <g transform="matrix(1,0,0,1,-79.34,-172.91)">
        <path d="M377.44,677.87L377.44,681.06C377.441,683.424 376.075,685.586 373.94,686.6L333.84,687.37C331.666,686.374 330.267,684.191 330.27,681.8L330.27,678.8L377.44,677.87Z" style="fill-opacity:0.1;fill-rule:nonzero;"/>
    </g>
    <path d="M298.6,515.57L246.35,516.57L246.35,507.9L298.6,506.9L298.6,515.57Z" style="fill:rgb(63,61,86);fill-rule:nonzero;"/>
    <path d="M298.6,515.57L246.35,516.57L246.35,507.9L298.6,506.9L298.6,515.57Z" style="fill-opacity:0.1;fill-rule:nonzero;"/>
    <path d="M300.6,515.57L248.35,516.57L248.35,507.9L300.6,506.9L300.6,515.57Z" style="fill:rgb(63,61,86);fill-rule:nonzero;"/>
    <g opacity="0.1">
        <g transform="matrix(1,0,0,1,-79.34,-172.91)">
            <path d="M552.93,361.56C551.953,360.291 551.304,358.8 551.04,357.22C550.799,358.764 550.943,360.345 551.46,361.82C551.956,361.774 552.448,361.687 552.93,361.56Z" style="fill-rule:nonzero;"/>
        </g>
        <g transform="matrix(1,0,0,1,-79.34,-172.91)">
            <path d="M540.23,368.2C540.041,366.974 539.918,365.739 539.86,364.5L539.86,368.21L540.23,368.2Z" style="fill-rule:nonzero;"/>
        </g>
        <g transform="matrix(1,0,0,1,-79.34,-172.91)">
            <path d="M621.73,401.57C621.785,400.679 621.906,399.793 622.09,398.92C622.563,397.399 622.832,395.822 622.89,394.23C622.868,393.873 622.814,393.518 622.73,393.17C622.56,394.09 622.29,395.01 622.09,395.92C621.691,397.775 621.569,399.679 621.73,401.57Z" style="fill-rule:nonzero;"/>
        </g>
        <g transform="matrix(1,0,0,1,-79.34,-172.91)">
            <path d="M600.93,370.67L602.02,371.46C602.939,370.795 603.799,370.053 604.59,369.24C605.355,368.182 605.5,366.793 604.97,365.6C604.87,365.828 604.743,366.043 604.59,366.24C603.36,367.82 600.64,368.69 600.93,370.67Z" style="fill-rule:nonzero;"/>
        </g>
        <g transform="matrix(1,0,0,1,-79.34,-172.91)">
            <path d="M518.76,380.29C518.395,381.019 518.104,381.783 517.89,382.57C519.454,381.697 521.139,381.06 522.89,380.68L518.76,380.29Z" style="fill-rule:nonzero;"/>
        </g>
        <g transform="matrix(1,0,0,1,-79.34,-172.91)">
            <path d="M532.55,369.41C531.893,369.048 531.265,368.637 530.67,368.18C530.645,368.576 530.675,368.973 530.76,369.36C531.357,369.332 531.955,369.348 532.55,369.41Z" style="fill-rule:nonzero;"/>
        </g>
        <g transform="matrix(1,0,0,1,-79.34,-172.91)">
            <path d="M630.32,428.33C629.91,433.18 627.65,437.85 625.82,442.45C622.15,451.67 620.08,461.45 618.53,471.26C617.14,480.05 615.53,490.03 608.03,494.9C605.887,496.18 603.593,497.188 601.2,497.9C590.42,501.63 579.55,505.37 568.2,506.73C556.85,508.09 544.94,506.9 535.04,501.24C532.17,499.742 529.706,497.57 527.86,494.91C525.19,490.68 525.14,485.38 523.86,480.54C522.769,476.946 521.432,473.431 519.86,470.02C517.65,464.64 515.95,459.02 514.26,453.49C512.693,448.35 511.13,443.207 509.57,438.06C509.056,436.512 508.675,434.923 508.43,433.31C508.04,435.87 508.8,438.55 509.57,441.06C511.13,446.213 512.693,451.357 514.26,456.49C515.95,462.06 517.65,467.64 519.86,473.02C521.432,476.431 522.769,479.946 523.86,483.54C525.12,488.38 525.17,493.68 527.86,497.91C529.706,500.57 532.17,502.742 535.04,504.24C544.94,509.9 556.88,511.09 568.2,509.73C579.52,508.37 590.38,504.63 601.2,500.9C603.593,500.188 605.887,499.18 608.03,497.9C615.48,493.03 617.14,483.05 618.53,474.26C620.08,464.45 622.15,454.67 625.82,445.45C628,439.97 630.82,434.4 630.34,428.51C630.34,428.45 630.32,428.39 630.32,428.33Z" style="fill-rule:nonzero;"/>
        </g>
        <g transform="matrix(1,0,0,1,-79.34,-172.91)">
            <path d="M510.63,424.46L510.63,424.35C510.81,422.587 510.654,420.805 510.17,419.1C509.97,418.003 509.84,416.894 509.78,415.78C509.665,417.895 509.796,420.016 510.17,422.1C510.33,422.88 510.51,423.67 510.63,424.46Z" style="fill-rule:nonzero;"/>
        </g>
        <g transform="matrix(1,0,0,1,-79.34,-172.91)">
            <path d="M513.68,400C514.449,398.708 515.322,397.481 516.29,396.33C514.46,398.08 511.08,396.52 510.37,394.09C510.108,395.073 510.108,396.107 510.37,397.09C510.871,398.582 512.136,399.695 513.68,400Z" style="fill-rule:nonzero;"/>
        </g>
    </g>
    <g transform="matrix(1,0,0,1,-79.34,-172.91)">
        <path d="M763.44,656.57C763.44,656.57 766.61,668.07 763.44,678.07C760.27,688.07 763.44,656.57 763.44,656.57Z" style="fill-opacity:0.1;fill-rule:nonzero;"/>
    </g>
    <g transform="matrix(1,0,0,1,-79.34,-172.91)">
        <path d="M776.94,668.3C776.94,668.3 778.27,682.9 775.27,685.49C772.27,688.08 776.94,668.3 776.94,668.3Z" style="fill-opacity:0.1;fill-rule:nonzero;"/>
    </g>
    <path d="M198.99,342.86L300.6,341.86" style="fill:none;fill-rule:nonzero;stroke:rgb(21,37,71);stroke-width:2px;"/>
    <path d="M198.99,355.33L300.6,354.34" style="fill:none;fill-rule:nonzero;stroke:rgb(21,37,71);stroke-width:2px;"/>
    <path d="M198.99,367.81L300.6,366.81" style="fill:none;fill-rule:nonzero;stroke:rgb(21,37,71);stroke-width:2px;"/>
    <defs>
        <linearGradient id="_Linear1" x1="0" y1="0" x2="1" y2="0" gradientUnits="userSpaceOnUse" gradientTransform="matrix(2.31305e-14,-377.75,377.75,2.31305e-14,597.75,725.44)"><stop offset="0" style="stop-color:rgb(128,128,128);stop-opacity:0.25"/><stop offset="0.54" style="stop-color:rgb(128,128,128);stop-opacity:0.12"/><stop offset="1" style="stop-color:rgb(128,128,128);stop-opacity:0.1"/></linearGradient>
    </defs>
</svg>
